# xmcd
#
# Track frame offsets:
#   150
#   16400
#   27606
#   37610
#   52960
#   70535
#   80357
#   90236
#   101922
#   114689
#   132130
#   151099
#   161774
#   175069
#   188230
#   198779
#
# Disc length: 2886 seconds
#
# Revision: 0
# Processed by: cddbd v1.5.2PL0 Copyright (c) Steve Scherf et al.
# Submitted via: uFREEDB ActiveX Control 1.5
#
DISCID=bc0b4410
DTITLE=1 - 1
DYEAR=1900
DGENRE=1
TTITLE0=outros1
TTITLE1=2
TTITLE2=outros3
TTITLE3=outros4
TTITLE4=outros5
TTITLE5=outros6
TTITLE6=7
TTITLE7=8
TTITLE8=9
TTITLE9=10
TTITLE10=11
TTITLE11=12
TTITLE12=13
TTITLE13=14
TTITLE14=15
TTITLE15=16
EXTD=
EXTT0=
EXTT1=
EXTT2=
EXTT3=
EXTT4=
EXTT5=
EXTT6=
EXTT7=
EXTT8=
EXTT9=
EXTT10=
EXTT11=
EXTT12=
EXTT13=
EXTT14=
EXTT15=
PLAYORDER=
